<svg width="120" height="120" viewBox="0 0 120 120" fill="none" xmlns="http://www.w3.org/2000/svg">
  <!-- Wolf head (simplified, stylized) -->
  <ellipse cx="60" cy="80" rx="40" ry="35" fill="#ddd" stroke="#222" stroke-width="3"/>
  <ellipse cx="40" cy="50" rx="12" ry="18" fill="#ddd" stroke="#222" stroke-width="3"/>
  <ellipse cx="80" cy="50" rx="12" ry="18" fill="#ddd" stroke="#222" stroke-width="3"/>
  <ellipse cx="60" cy="90" rx="18" ry="10" fill="#fff" stroke="#222" stroke-width="2"/>
  <ellipse cx="50" cy="80" rx="4" ry="6" fill="#222"/>
  <ellipse cx="70" cy="80" rx="4" ry="6" fill="#222"/>
  <ellipse cx="60" cy="100" rx="6" ry="3" fill="#222"/>
  <!-- Gear (for animation) -->
  <g id="gear" style="transform-origin:60px 60px;">
    <circle cx="60" cy="60" r="14" fill="#a06eb5"/>
    <g stroke="#a06eb5" stroke-width="4">
      <line x1="60" y1="42" x2="60" y2="32"/>
      <line x1="60" y1="78" x2="60" y2="88"/>
      <line x1="42" y1="60" x2="32" y2="60"/>
      <line x1="78" y1="60" x2="88" y2="60"/>
      <line x1="48" y1="48" x2="40" y2="40"/>
      <line x1="72" y1="48" x2="80" y2="40"/>
      <line x1="48" y1="72" x2="40" y2="80"/>
      <line x1="72" y1="72" x2="80" y2="80"/>
    </g>
  </g>
</svg> 